<?xml version="1.0" encoding="utf-8"?>
<!-- Generator: Adobe Illustrator 21.0.0, SVG Export Plug-In . SVG Version: 6.00 Build 0)  -->
<svg version="1.1" id="Layer_1" xmlns="http://www.w3.org/2000/svg" xmlns:xlink="http://www.w3.org/1999/xlink" x="0px" y="0px"
	 width="1000px" height="1000px" viewBox="0 0 1000 1000" enable-background="new 0 0 1000 1000" xml:space="preserve">
<path fill="#F65453" d="M978,119.6v760.9c0,53.7-43.9,97.6-97.6,97.6H119.6C65.9,978,22,934.1,22,880.4V119.6
	C22,65.9,65.9,22,119.6,22h760.9C934.1,22,978,65.9,978,119.6z"/>
<path fill="#0D82EC" d="M978,119.6v663.3c0,53.7-43.9,97.6-97.6,97.6H119.6c-53.7,0-97.6-43.9-97.6-97.6V119.6
	C22,65.9,65.9,22,119.6,22h760.9C934.1,22,978,65.9,978,119.6z"/>
<text transform="matrix(1 0 0 1 90.5962 689.9805)" fill="#FFFFFF" font-family="'NexaBold'" font-size="701.0421px">eL</text>
</svg>
